PathFileType	4	(X/Y/Z)	C3D_Data\SPM_data\ik.trc
DataRate	CameraRate	NumFrames	NumMarkers	Units	OrigDataRate	OrigDataStartFrame	OrigNumFrames
120.000000	120.000000	4	51	mm	120.000000	0	132
Frame#	Time	Sternum			Neck			RShoulder			LShoulder			Xiphoid			Thoracic			RAsis			LAsis			RPsis			LPsis			Lumbar			RElbow			RWrist			RRadius			RUlna			LElbow			LWrist			LUlna			LRadius			LThighSuperior			LThighInferior			LThighLateral			LPatella			LShankSuperior			LShankInferior			LShankLateral			RThighSuperior			RThighInferior			RThighLateral			RPatella			RShankSuperior			RShankInferior			RShankLateral			RHeel			RToe			RMidfootLateral			RHindfoot			LHeel			LToe			LMidfootMedial			LMidfootLateral			LHindfoot			LMidfootSuperior			LToeMedial			LToeLateral			Oglobal			Sacral			Xglobal			Yglobal			Zglobal			RMidfootSuperior			
		X1	Y1	Z1	X2	Y2	Z2	X3	Y3	Z3	X4	Y4	Z4	X5	Y5	Z5	X6	Y6	Z6	X7	Y7	Z7	X8	Y8	Z8	X9	Y9	Z9	X10	Y10	Z10	X11	Y11	Z11	X12	Y12	Z12	X13	Y13	Z13	X14	Y14	Z14	X15	Y15	Z15	X16	Y16	Z16	X17	Y17	Z17	X18	Y18	Z18	X19	Y19	Z19	X20	Y20	Z20	X21	Y21	Z21	X22	Y22	Z22	X23	Y23	Z23	X24	Y24	Z24	X25	Y25	Z25	X26	Y26	Z26	X27	Y27	Z27	X28	Y28	Z28	X29	Y29	Z29	X30	Y30	Z30	X31	Y31	Z31	X32	Y32	Z32	X33	Y33	Z33	X34	Y34	Z34	X35	Y35	Z35	X36	Y36	Z36	X37	Y37	Z37	X38	Y38	Z38	X39	Y39	Z39	X40	Y40	Z40	X41	Y41	Z41	X42	Y42	Z42	X43	Y43	Z43	X44	Y44	Z44	X45	Y45	Z45	X46	Y46	Z46	X47	Y47	Z47	X48	Y48	Z48	X49	Y49	Z49	X50	Y50	Z50	X51	Y51	Z51	

1	0	127.9197845458984	1414.53564453125	174.070816040039	-32.45687103271487	1520.221313476563	178.2452697753905	16.08462905883785	1508.69091796875	337.2440490722655	-1.234011173248295	1504.080322265625	36.668601989746	154.2881317138672	1254.797485351563	185.9435119628906	-122.9698867797852	1305.827392578125	187.1521911621093	52.85389709472652	999.960693359375	330.0712280273437	74.37818145751953	983.66064453125	55.11619567871089	-130.4412536621094	1022.072082519531	235.523712158203	-127.0319290161133	1013.974243164063	131.0933532714843	-115.906982421875	1120.137573242188	180.6702423095703	47.53263854980463	1177.432373046875	455.1417236328124	271.4564208984374	1024.931274414063	472.4303894042969	291.5384521484374	1033.464233398438	424.4414367675781	245.4201507568359	987.8775634765625	473.2560424804688	-148.6790466308594	1192.571655273438	-31.96719551086435	-169.4360961914063	930.2070922851563	-81.50079345703132	-200.3712158203125	934.3710327148438	-46.93438720703133	-126.3402252197265	914.7383422851563	-61.79329681396491	46.20558547973633	819.707275390625	-3.777688026428267	156.5153503417969	617.4954833984375	31.31885528564451	185.3130035400391	739.3029174804688	78.76965332031249	259.7050170898438	566.0145263671875	96.06482696533203	230.8919830322266	395.495361328125	27.01130294799805	263.2200927734375	195.7485504150391	61.49523162841799	286.658203125	301.4430236816406	93.03285980224611	-41.06695175170903	808.5267333984375	370.7610168457031	-92.12244415283207	574.0081176757813	334.9703063964843	34.10858535766598	705.7559204101563	301.4922790527343	-40.61925888061527	483.0458374023438	277.2596435546874	-158.4266357421875	424.8305053710938	337.4967346191406	-244.5982513427735	183.7544708251953	296.6565246582031	-152.5570068359375	286.9934997558594	257.7023620605469	-365.9477233886719	80.17380523681642	240.9295196533203	-50.49874496459964	40.13396453857423	256.0807800292969	-155.6082458496094	28.11599540710451	323.6069641113281	-208.5914001464844	32.38614654541018	312.0479736328125	219.8527374267578	49.55953598022462	114.9642105102539	517.5452270507813	132.2193756103516	64.95034790039067	437.0593872070313	78.85036468505861	128.3822174072266	423.2074584960938	74.75307464599609	14.71949100494389	374.7679443359375	58.73892593383789	30.84424591064457	392.9633483886719	134.1985168457031	83.56769561767581	476.0663757324219	92.72569274902345	119.4081954956055	463.2392578125	98.33139038085938	16.33791923522954	0	0	0	-128.7365875244141	1018.023193359375	183.3085327148437	-200	0	-2.449293598294706e-14	-2.449293598294706e-14	1.224646799147353e-14	200	1.499759782661858e-30	200	-1.224646799147353e-14	-178.3758392333985	94.30368804931642	255.9802551269531	
2	0.008333333333333335	137.5331268310547	1413.303588867188	172.6924591064453	-23.04017066955569	1518.986938476563	176.4508819580077	25.204906463623	1507.949340820313	335.6072387695311	8.285474777221676	1502.40771484375	34.77489852905264	163.9296417236328	1253.688110351563	185.0095977783203	-113.3202362060547	1304.571899414063	185.7084350585937	62.13359451293941	998.44287109375	329.7362365722656	85.36868286132813	982.975830078125	54.33907699584956	-120.5688095092774	1020.861389160156	234.1125183105468	-116.4489898681641	1012.757995605469	129.4470062255859	-105.7912750244141	1118.943481445313	179.428482055664	56.07739639282221	1176.546264648438	454.1012268066406	280.1645202636718	1024.065551757813	470.6046752929688	300.0585632324218	1032.533081054688	422.5566711425781	254.2413330078124	986.9945068359375	471.6740417480469	-138.3899230957031	1190.462280273438	-33.25414657592782	-159.5721282958984	927.7793579101563	-82.09354400634773	-190.5611267089844	932.4230346679688	-47.62397003173836	-116.4863891601562	912.397216796875	-62.31349945068366	58.35515213012695	819.357177734375	-3.500239372253461	167.15625	616.2939453125	32.25452804565428	197.4740142822266	737.6756591796875	78.09643554687499	270.2601928710938	564.1485595703125	96.79161071777344	235.5868835449219	391.5140075683594	28.93226623535157	267.7919006347656	193.5509948730469	62.77632141113283	292.8297424316406	298.5775756835938	94.11737823486331	-32.61023330688481	807.81787109375	370.2074279785156	-84.68661499023442	573.43798828125	334.3788146972656	42.48514938354489	704.5245971679688	301.2972106933593	-33.8752365112305	481.2158203125	277.0993957519531	-152.5491180419922	424.8942260742188	336.9554443359375	-242.213134765625	185.2191925048828	296.1931152343749	-149.211181640625	286.8544006347656	257.3833923339844	-364.6505432128907	83.12811279296876	241.148208618164	-50.31987762451175	39.55024719238283	256.0046997070313	-155.611312866211	27.92037010192873	324.0973815917969	-208.0753936767578	32.9368362426758	311.874267578125	221.0854949951172	50.94287872314454	115.5535430908203	521.669921875	124.5657653808594	67.91523742675786	440.4937744140625	73.53536224365236	130.5510559082032	426.5724182128906	69.1666259765625	16.94766616821294	376.068115234375	56.8265266418457	31.22679519653325	397.107421875	129.7088928222656	85.562370300293	479.1113891601563	86.09923553466798	122.2751541137696	466.8672790527344	91.734130859375	19.13559150695806	0	0	0	-118.5088958740235	1016.809692382813	181.7797546386718	-200	0	-2.449293598294706e-14	-2.449293598294706e-14	1.224646799147353e-14	200	1.499759782661858e-30	200	-1.224646799147353e-14	-176.9413604736328	94.73238372802736	255.5751647949218	
3	0.01666666666666667	147.0435333251953	1412.414428710938	171.4045257568359	-13.67604637145998	1517.965454101563	174.6198730468749	34.25042724609371	1507.246337890625	333.973663330078	17.86485290527343	1500.843994140625	33.02153778076163	173.7084350585937	1252.873168945313	184.1381378173828	-103.499755859375	1303.3701171875	184.3963470458984	71.61084747314449	997.0230712890625	329.1998291015624	96.57936859130859	982.3568725585938	53.64082717895504	-110.4693984985352	1019.963928222656	232.5093231201171	-105.688720703125	1011.774169921875	127.6835784912109	-95.33581542968753	1118.005859375	178.0770111083984	64.62664794921869	1175.949096679688	452.8924560546874	288.5021057128906	1022.971435546875	468.9870300292969	308.3233642578124	1031.433349609375	420.6624145507813	262.6084899902343	985.9112548828125	470.1335754394531	-127.7471160888672	1188.138305664063	-34.53557205200204	-149.1359252929688	925.5571899414063	-82.78661346435554	-180.1768493652344	930.2716064453125	-48.48179626464852	-106.1266250610351	910.1119384765625	-62.98934173583991	70.62139892578125	818.6251831054688	-2.497439384460491	177.0037384033203	614.968505859375	33.16036987304686	209.3097076416016	736.2053833007813	77.64761352539061	279.8326721191406	562.5092163085938	98.8154296875	243.2425231933594	389.3945617675781	30.10536193847657	273.1459045410156	191.5395660400391	63.49771881103518	299.2141418457031	295.9800109863281	95.09011840820315	-23.89437675476079	807.0988159179688	369.3446960449218	-76.69805908203129	572.981201171875	333.7517700195312	51.22267913818356	703.42919921875	301.0679626464843	-26.82378768920902	479.3250122070313	276.8679199218749	-146.2975463867188	425.1543884277344	336.5822143554688	-239.6342315673828	186.9630279541016	295.8371582031249	-144.5861053466797	286.4796752929688	256.974853515625	-363.5252075195313	86.44202423095705	240.7622528076171	-49.61057281494143	38.4326515197754	256.2865905761719	-155.607421875	27.91394233703615	324.1439208984375	-207.5748443603516	33.58852386474612	311.7919006347656	222.8058624267578	52.58061218261719	115.4173355102539	525.8692626953125	116.3331832885742	71.46977233886724	443.8104858398438	67.98410034179689	133.0037078857422	430.1172790527344	64.01770782470703	19.13477325439458	380.7105712890625	50.59580612182617	34.49512100219732	401.8107299804688	124.9284896850586	87.69536590576175	481.9809875488281	78.9957962036133	125.5589752197266	470.4265441894531	85.0975341796875	22.36641311645513	0	0	0	-108.0790557861328	1015.869079589844	180.096450805664	-200	0	-2.449293598294706e-14	-2.449293598294706e-14	1.224646799147353e-14	200	1.499759782661858e-30	200	-1.224646799147353e-14	-175.5296630859375	95.17891693115236	255.7237243652343	
4	0.025	156.7892608642578	1411.659790039063	170.2683105468749	-4.337367534637472	1517.113647460938	172.7204284667968	43.08924102783199	1506.92578125	332.2805175781249	27.47735214233398	1499.495361328125	31.23464012145987	183.724853515625	1252.539672851563	183.354019165039	-93.63313293457034	1302.4267578125	182.778839111328	81.20968627929683	995.7374877929688	328.5179138183593	107.9190902709961	982.4021606445313	52.94024658203121	-100.2257614135742	1019.347290039063	230.7669525146484	-94.85401916503908	1011.000427246094	125.9363861083984	-84.8688888549805	1117.328735351563	176.8793640136718	73.04328155517572	1175.677124023438	451.5871276855468	296.4875793457031	1021.699096679688	467.2204284667969	316.0791320800781	1030.09423828125	419.0366821289063	270.5109252929687	984.7297973632813	468.4123229980469	-116.8776550292969	1186.0185546875	-35.99424743652352	-138.158447265625	923.3787231445313	-83.67586517333991	-169.2312164306641	928.1461181640625	-49.30306625366219	-94.96154022216795	907.7659912109375	-63.67245483398445	82.33323669433594	818.0531005859375	-1.964216232299845	186.0029144287109	613.4681396484375	33.87574768066405	220.6075744628906	734.5768432617188	77.21704864501952	289.0930786132813	560.373291015625	99.83770751953125	251.3681488037109	387.9966430664063	30.49080848693848	278.7666625976563	189.9147796630859	63.50682449340822	305.5474548339844	293.4461059570313	95.84040069580081	-14.8977022171021	806.6799926757813	368.7488098144531	-68.18125915527348	572.7041015625	333.2409973144531	60.38667297363278	702.637451171875	300.5543823242187	-18.65772819519047	477.715576171875	276.6779479980468	-139.37744140625	425.6009521484375	336.1636352539063	-236.7367706298828	189.0253295898438	295.5791015624999	-139.6620178222657	286.9232482910156	256.9163208007813	-362.0028686523438	90.63875579833986	240.6466979980468	-49.19490814208987	37.74597549438478	256.1536865234375	-156.009033203125	28.7476387023926	323.4828491210938	-206.8747100830078	34.3125686645508	311.6397705078125	224.7775726318359	54.18714904785157	114.8658447265625	530.2308959960938	107.6390762329102	75.44865417480476	444.1033630371094	61.52744293212891	136.3157958984376	433.9414367675781	57.92326354980469	21.4658813476563	383.7134094238281	46.69587707519531	36.08990859985357	406.5994873046875	119.9938659667969	89.59847259521489	484.0322875976563	71.99697113037111	128.7518463134766	474.9351806640625	77.83863067626953	25.29868125915533	0	0	0	-97.53989410400393	1015.173889160156	178.3516693115234	-200	0	-2.449293598294706e-14	-2.449293598294706e-14	1.224646799147353e-14	200	1.499759782661858e-30	200	-1.224646799147353e-14	-173.8405456542969	95.96536254882814	255.7251281738281	
